<?xml version="1.0" encoding="UTF-8"?>
<svg version="1.1" baseProfile="tiny" xmlns="http://www.w3.org/2000/svg" width="400" height="400">
<rect shape-rendering="optimizeSpeed"  x="0" y="0" width="400" height="400" fill="white" />
<rect shape-rendering="optimizeSpeed"  x="26" y="26" width="12" height="12" fill="black" />
<rect shape-rendering="optimizeSpeed"  x="38" y="26" width="12" height="12" fill="black" />
<rect shape-rendering="optimizeSpeed"  x="50" y="26" width="12" height="12" fill="black" />
<rect shape-rendering="optimizeSpeed"  x="62" y="26" width="12" height="12" fill="black" />
<rect shape-rendering="optimizeSpeed"  x="74" y="26" width="12" height="12" fill="black" />
<rect shape-rendering="optimizeSpeed"  x="86" y="26" width="12" height="12" fill="black" />
<rect shape-rendering="optimizeSpeed"  x="98" y="26" width="12" height="12" fill="black" />
<rect shape-rendering="optimizeSpeed"  x="122" y="26" width="12" height="12" fill="black" />
<rect shape-rendering="optimizeSpeed"  x="134" y="26" width="12" height="12" fill="black" />
<rect shape-rendering="optimizeSpeed"  x="182" y="26" width="12" height="12" fill="black" />
<rect shape-rendering="optimizeSpeed"  x="254" y="26" width="12" height="12" fill="black" />
<rect shape-rendering="optimizeSpeed"  x="266" y="26" width="12" height="12" fill="black" />
<rect shape-rendering="optimizeSpeed"  x="290" y="26" width="12" height="12" fill="black" />
<rect shape-rendering="optimizeSpeed"  x="302" y="26" width="12" height="12" fill="black" />
<rect shape-rendering="optimizeSpeed"  x="314" y="26" width="12" height="12" fill="black" />
<rect shape-rendering="optimizeSpeed"  x="326" y="26" width="12" height="12" fill="black" />
<rect shape-rendering="optimizeSpeed"  x="338" y="26" width="12" height="12" fill="black" />
<rect shape-rendering="optimizeSpeed"  x="350" y="26" width="12" height="12" fill="black" />
<rect shape-rendering="optimizeSpeed"  x="362" y="26" width="12" height="12" fill="black" />
<rect shape-rendering="optimizeSpeed"  x="26" y="38" width="12" height="12" fill="black" />
<rect shape-rendering="optimizeSpeed"  x="98" y="38" width="12" height="12" fill="black" />
<rect shape-rendering="optimizeSpeed"  x="182" y="38" width="12" height="12" fill="black" />
<rect shape-rendering="optimizeSpeed"  x="218" y="38" width="12" height="12" fill="black" />
<rect shape-rendering="optimizeSpeed"  x="290" y="38" width="12" height="12" fill="black" />
<rect shape-rendering="optimizeSpeed"  x="362" y="38" width="12" height="12" fill="black" />
<rect shape-rendering="optimizeSpeed"  x="26" y="50" width="12" height="12" fill="black" />
<rect shape-rendering="optimizeSpeed"  x="50" y="50" width="12" height="12" fill="black" />
<rect shape-rendering="optimizeSpeed"  x="62" y="50" width="12" height="12" fill="black" />
<rect shape-rendering="optimizeSpeed"  x="74" y="50" width="12" height="12" fill="black" />
<rect shape-rendering="optimizeSpeed"  x="98" y="50" width="12" height="12" fill="black" />
<rect shape-rendering="optimizeSpeed"  x="122" y="50" width="12" height="12" fill="black" />
<rect shape-rendering="optimizeSpeed"  x="158" y="50" width="12" height="12" fill="black" />
<rect shape-rendering="optimizeSpeed"  x="170" y="50" width="12" height="12" fill="black" />
<rect shape-rendering="optimizeSpeed"  x="182" y="50" width="12" height="12" fill="black" />
<rect shape-rendering="optimizeSpeed"  x="194" y="50" width="12" height="12" fill="black" />
<rect shape-rendering="optimizeSpeed"  x="206" y="50" width="12" height="12" fill="black" />
<rect shape-rendering="optimizeSpeed"  x="218" y="50" width="12" height="12" fill="black" />
<rect shape-rendering="optimizeSpeed"  x="242" y="50" width="12" height="12" fill="black" />
<rect shape-rendering="optimizeSpeed"  x="254" y="50" width="12" height="12" fill="black" />
<rect shape-rendering="optimizeSpeed"  x="266" y="50" width="12" height="12" fill="black" />
<rect shape-rendering="optimizeSpeed"  x="290" y="50" width="12" height="12" fill="black" />
<rect shape-rendering="optimizeSpeed"  x="314" y="50" width="12" height="12" fill="black" />
<rect shape-rendering="optimizeSpeed"  x="326" y="50" width="12" height="12" fill="black" />
<rect shape-rendering="optimizeSpeed"  x="338" y="50" width="12" height="12" fill="black" />
<rect shape-rendering="optimizeSpeed"  x="362" y="50" width="12" height="12" fill="black" />
<rect shape-rendering="optimizeSpeed"  x="26" y="62" width="12" height="12" fill="black" />
<rect shape-rendering="optimizeSpeed"  x="50" y="62" width="12" height="12" fill="black" />
<rect shape-rendering="optimizeSpeed"  x="62" y="62" width="12" height="12" fill="black" />
<rect shape-rendering="optimizeSpeed"  x="74" y="62" width="12" height="12" fill="black" />
<rect shape-rendering="optimizeSpeed"  x="98" y="62" width="12" height="12" fill="black" />
<rect shape-rendering="optimizeSpeed"  x="122" y="62" width="12" height="12" fill="black" />
<rect shape-rendering="optimizeSpeed"  x="134" y="62" width="12" height="12" fill="black" />
<rect shape-rendering="optimizeSpeed"  x="158" y="62" width="12" height="12" fill="black" />
<rect shape-rendering="optimizeSpeed"  x="182" y="62" width="12" height="12" fill="black" />
<rect shape-rendering="optimizeSpeed"  x="206" y="62" width="12" height="12" fill="black" />
<rect shape-rendering="optimizeSpeed"  x="230" y="62" width="12" height="12" fill="black" />
<rect shape-rendering="optimizeSpeed"  x="242" y="62" width="12" height="12" fill="black" />
<rect shape-rendering="optimizeSpeed"  x="290" y="62" width="12" height="12" fill="black" />
<rect shape-rendering="optimizeSpeed"  x="314" y="62" width="12" height="12" fill="black" />
<rect shape-rendering="optimizeSpeed"  x="326" y="62" width="12" height="12" fill="black" />
<rect shape-rendering="optimizeSpeed"  x="338" y="62" width="12" height="12" fill="black" />
<rect shape-rendering="optimizeSpeed"  x="362" y="62" width="12" height="12" fill="black" />
<rect shape-rendering="optimizeSpeed"  x="26" y="74" width="12" height="12" fill="black" />
<rect shape-rendering="optimizeSpeed"  x="50" y="74" width="12" height="12" fill="black" />
<rect shape-rendering="optimizeSpeed"  x="62" y="74" width="12" height="12" fill="black" />
<rect shape-rendering="optimizeSpeed"  x="74" y="74" width="12" height="12" fill="black" />
<rect shape-rendering="optimizeSpeed"  x="98" y="74" width="12" height="12" fill="black" />
<rect shape-rendering="optimizeSpeed"  x="122" y="74" width="12" height="12" fill="black" />
<rect shape-rendering="optimizeSpeed"  x="134" y="74" width="12" height="12" fill="black" />
<rect shape-rendering="optimizeSpeed"  x="146" y="74" width="12" height="12" fill="black" />
<rect shape-rendering="optimizeSpeed"  x="158" y="74" width="12" height="12" fill="black" />
<rect shape-rendering="optimizeSpeed"  x="206" y="74" width="12" height="12" fill="black" />
<rect shape-rendering="optimizeSpeed"  x="254" y="74" width="12" height="12" fill="black" />
<rect shape-rendering="optimizeSpeed"  x="290" y="74" width="12" height="12" fill="black" />
<rect shape-rendering="optimizeSpeed"  x="314" y="74" width="12" height="12" fill="black" />
<rect shape-rendering="optimizeSpeed"  x="326" y="74" width="12" height="12" fill="black" />
<rect shape-rendering="optimizeSpeed"  x="338" y="74" width="12" height="12" fill="black" />
<rect shape-rendering="optimizeSpeed"  x="362" y="74" width="12" height="12" fill="black" />
<rect shape-rendering="optimizeSpeed"  x="26" y="86" width="12" height="12" fill="black" />
<rect shape-rendering="optimizeSpeed"  x="98" y="86" width="12" height="12" fill="black" />
<rect shape-rendering="optimizeSpeed"  x="134" y="86" width="12" height="12" fill="black" />
<rect shape-rendering="optimizeSpeed"  x="170" y="86" width="12" height="12" fill="black" />
<rect shape-rendering="optimizeSpeed"  x="182" y="86" width="12" height="12" fill="black" />
<rect shape-rendering="optimizeSpeed"  x="230" y="86" width="12" height="12" fill="black" />
<rect shape-rendering="optimizeSpeed"  x="242" y="86" width="12" height="12" fill="black" />
<rect shape-rendering="optimizeSpeed"  x="254" y="86" width="12" height="12" fill="black" />
<rect shape-rendering="optimizeSpeed"  x="290" y="86" width="12" height="12" fill="black" />
<rect shape-rendering="optimizeSpeed"  x="362" y="86" width="12" height="12" fill="black" />
<rect shape-rendering="optimizeSpeed"  x="26" y="98" width="12" height="12" fill="black" />
<rect shape-rendering="optimizeSpeed"  x="38" y="98" width="12" height="12" fill="black" />
<rect shape-rendering="optimizeSpeed"  x="50" y="98" width="12" height="12" fill="black" />
<rect shape-rendering="optimizeSpeed"  x="62" y="98" width="12" height="12" fill="black" />
<rect shape-rendering="optimizeSpeed"  x="74" y="98" width="12" height="12" fill="black" />
<rect shape-rendering="optimizeSpeed"  x="86" y="98" width="12" height="12" fill="black" />
<rect shape-rendering="optimizeSpeed"  x="98" y="98" width="12" height="12" fill="black" />
<rect shape-rendering="optimizeSpeed"  x="122" y="98" width="12" height="12" fill="black" />
<rect shape-rendering="optimizeSpeed"  x="146" y="98" width="12" height="12" fill="black" />
<rect shape-rendering="optimizeSpeed"  x="170" y="98" width="12" height="12" fill="black" />
<rect shape-rendering="optimizeSpeed"  x="194" y="98" width="12" height="12" fill="black" />
<rect shape-rendering="optimizeSpeed"  x="218" y="98" width="12" height="12" fill="black" />
<rect shape-rendering="optimizeSpeed"  x="242" y="98" width="12" height="12" fill="black" />
<rect shape-rendering="optimizeSpeed"  x="266" y="98" width="12" height="12" fill="black" />
<rect shape-rendering="optimizeSpeed"  x="290" y="98" width="12" height="12" fill="black" />
<rect shape-rendering="optimizeSpeed"  x="302" y="98" width="12" height="12" fill="black" />
<rect shape-rendering="optimizeSpeed"  x="314" y="98" width="12" height="12" fill="black" />
<rect shape-rendering="optimizeSpeed"  x="326" y="98" width="12" height="12" fill="black" />
<rect shape-rendering="optimizeSpeed"  x="338" y="98" width="12" height="12" fill="black" />
<rect shape-rendering="optimizeSpeed"  x="350" y="98" width="12" height="12" fill="black" />
<rect shape-rendering="optimizeSpeed"  x="362" y="98" width="12" height="12" fill="black" />
<rect shape-rendering="optimizeSpeed"  x="134" y="110" width="12" height="12" fill="black" />
<rect shape-rendering="optimizeSpeed"  x="158" y="110" width="12" height="12" fill="black" />
<rect shape-rendering="optimizeSpeed"  x="206" y="110" width="12" height="12" fill="black" />
<rect shape-rendering="optimizeSpeed"  x="218" y="110" width="12" height="12" fill="black" />
<rect shape-rendering="optimizeSpeed"  x="230" y="110" width="12" height="12" fill="black" />
<rect shape-rendering="optimizeSpeed"  x="242" y="110" width="12" height="12" fill="black" />
<rect shape-rendering="optimizeSpeed"  x="26" y="122" width="12" height="12" fill="black" />
<rect shape-rendering="optimizeSpeed"  x="38" y="122" width="12" height="12" fill="black" />
<rect shape-rendering="optimizeSpeed"  x="50" y="122" width="12" height="12" fill="black" />
<rect shape-rendering="optimizeSpeed"  x="62" y="122" width="12" height="12" fill="black" />
<rect shape-rendering="optimizeSpeed"  x="98" y="122" width="12" height="12" fill="black" />
<rect shape-rendering="optimizeSpeed"  x="122" y="122" width="12" height="12" fill="black" />
<rect shape-rendering="optimizeSpeed"  x="206" y="122" width="12" height="12" fill="black" />
<rect shape-rendering="optimizeSpeed"  x="218" y="122" width="12" height="12" fill="black" />
<rect shape-rendering="optimizeSpeed"  x="230" y="122" width="12" height="12" fill="black" />
<rect shape-rendering="optimizeSpeed"  x="242" y="122" width="12" height="12" fill="black" />
<rect shape-rendering="optimizeSpeed"  x="254" y="122" width="12" height="12" fill="black" />
<rect shape-rendering="optimizeSpeed"  x="278" y="122" width="12" height="12" fill="black" />
<rect shape-rendering="optimizeSpeed"  x="314" y="122" width="12" height="12" fill="black" />
<rect shape-rendering="optimizeSpeed"  x="326" y="122" width="12" height="12" fill="black" />
<rect shape-rendering="optimizeSpeed"  x="338" y="122" width="12" height="12" fill="black" />
<rect shape-rendering="optimizeSpeed"  x="362" y="122" width="12" height="12" fill="black" />
<rect shape-rendering="optimizeSpeed"  x="26" y="134" width="12" height="12" fill="black" />
<rect shape-rendering="optimizeSpeed"  x="50" y="134" width="12" height="12" fill="black" />
<rect shape-rendering="optimizeSpeed"  x="62" y="134" width="12" height="12" fill="black" />
<rect shape-rendering="optimizeSpeed"  x="110" y="134" width="12" height="12" fill="black" />
<rect shape-rendering="optimizeSpeed"  x="134" y="134" width="12" height="12" fill="black" />
<rect shape-rendering="optimizeSpeed"  x="194" y="134" width="12" height="12" fill="black" />
<rect shape-rendering="optimizeSpeed"  x="254" y="134" width="12" height="12" fill="black" />
<rect shape-rendering="optimizeSpeed"  x="266" y="134" width="12" height="12" fill="black" />
<rect shape-rendering="optimizeSpeed"  x="278" y="134" width="12" height="12" fill="black" />
<rect shape-rendering="optimizeSpeed"  x="290" y="134" width="12" height="12" fill="black" />
<rect shape-rendering="optimizeSpeed"  x="302" y="134" width="12" height="12" fill="black" />
<rect shape-rendering="optimizeSpeed"  x="314" y="134" width="12" height="12" fill="black" />
<rect shape-rendering="optimizeSpeed"  x="362" y="134" width="12" height="12" fill="black" />
<rect shape-rendering="optimizeSpeed"  x="26" y="146" width="12" height="12" fill="black" />
<rect shape-rendering="optimizeSpeed"  x="50" y="146" width="12" height="12" fill="black" />
<rect shape-rendering="optimizeSpeed"  x="74" y="146" width="12" height="12" fill="black" />
<rect shape-rendering="optimizeSpeed"  x="86" y="146" width="12" height="12" fill="black" />
<rect shape-rendering="optimizeSpeed"  x="98" y="146" width="12" height="12" fill="black" />
<rect shape-rendering="optimizeSpeed"  x="182" y="146" width="12" height="12" fill="black" />
<rect shape-rendering="optimizeSpeed"  x="194" y="146" width="12" height="12" fill="black" />
<rect shape-rendering="optimizeSpeed"  x="218" y="146" width="12" height="12" fill="black" />
<rect shape-rendering="optimizeSpeed"  x="230" y="146" width="12" height="12" fill="black" />
<rect shape-rendering="optimizeSpeed"  x="278" y="146" width="12" height="12" fill="black" />
<rect shape-rendering="optimizeSpeed"  x="290" y="146" width="12" height="12" fill="black" />
<rect shape-rendering="optimizeSpeed"  x="338" y="146" width="12" height="12" fill="black" />
<rect shape-rendering="optimizeSpeed"  x="350" y="146" width="12" height="12" fill="black" />
<rect shape-rendering="optimizeSpeed"  x="50" y="158" width="12" height="12" fill="black" />
<rect shape-rendering="optimizeSpeed"  x="74" y="158" width="12" height="12" fill="black" />
<rect shape-rendering="optimizeSpeed"  x="158" y="158" width="12" height="12" fill="black" />
<rect shape-rendering="optimizeSpeed"  x="170" y="158" width="12" height="12" fill="black" />
<rect shape-rendering="optimizeSpeed"  x="182" y="158" width="12" height="12" fill="black" />
<rect shape-rendering="optimizeSpeed"  x="194" y="158" width="12" height="12" fill="black" />
<rect shape-rendering="optimizeSpeed"  x="206" y="158" width="12" height="12" fill="black" />
<rect shape-rendering="optimizeSpeed"  x="254" y="158" width="12" height="12" fill="black" />
<rect shape-rendering="optimizeSpeed"  x="302" y="158" width="12" height="12" fill="black" />
<rect shape-rendering="optimizeSpeed"  x="362" y="158" width="12" height="12" fill="black" />
<rect shape-rendering="optimizeSpeed"  x="26" y="170" width="12" height="12" fill="black" />
<rect shape-rendering="optimizeSpeed"  x="50" y="170" width="12" height="12" fill="black" />
<rect shape-rendering="optimizeSpeed"  x="62" y="170" width="12" height="12" fill="black" />
<rect shape-rendering="optimizeSpeed"  x="98" y="170" width="12" height="12" fill="black" />
<rect shape-rendering="optimizeSpeed"  x="134" y="170" width="12" height="12" fill="black" />
<rect shape-rendering="optimizeSpeed"  x="158" y="170" width="12" height="12" fill="black" />
<rect shape-rendering="optimizeSpeed"  x="230" y="170" width="12" height="12" fill="black" />
<rect shape-rendering="optimizeSpeed"  x="254" y="170" width="12" height="12" fill="black" />
<rect shape-rendering="optimizeSpeed"  x="278" y="170" width="12" height="12" fill="black" />
<rect shape-rendering="optimizeSpeed"  x="326" y="170" width="12" height="12" fill="black" />
<rect shape-rendering="optimizeSpeed"  x="338" y="170" width="12" height="12" fill="black" />
<rect shape-rendering="optimizeSpeed"  x="26" y="182" width="12" height="12" fill="black" />
<rect shape-rendering="optimizeSpeed"  x="38" y="182" width="12" height="12" fill="black" />
<rect shape-rendering="optimizeSpeed"  x="50" y="182" width="12" height="12" fill="black" />
<rect shape-rendering="optimizeSpeed"  x="74" y="182" width="12" height="12" fill="black" />
<rect shape-rendering="optimizeSpeed"  x="86" y="182" width="12" height="12" fill="black" />
<rect shape-rendering="optimizeSpeed"  x="110" y="182" width="12" height="12" fill="black" />
<rect shape-rendering="optimizeSpeed"  x="122" y="182" width="12" height="12" fill="black" />
<rect shape-rendering="optimizeSpeed"  x="146" y="182" width="12" height="12" fill="black" />
<rect shape-rendering="optimizeSpeed"  x="158" y="182" width="12" height="12" fill="black" />
<rect shape-rendering="optimizeSpeed"  x="182" y="182" width="12" height="12" fill="black" />
<rect shape-rendering="optimizeSpeed"  x="194" y="182" width="12" height="12" fill="black" />
<rect shape-rendering="optimizeSpeed"  x="206" y="182" width="12" height="12" fill="black" />
<rect shape-rendering="optimizeSpeed"  x="218" y="182" width="12" height="12" fill="black" />
<rect shape-rendering="optimizeSpeed"  x="230" y="182" width="12" height="12" fill="black" />
<rect shape-rendering="optimizeSpeed"  x="242" y="182" width="12" height="12" fill="black" />
<rect shape-rendering="optimizeSpeed"  x="254" y="182" width="12" height="12" fill="black" />
<rect shape-rendering="optimizeSpeed"  x="290" y="182" width="12" height="12" fill="black" />
<rect shape-rendering="optimizeSpeed"  x="338" y="182" width="12" height="12" fill="black" />
<rect shape-rendering="optimizeSpeed"  x="350" y="182" width="12" height="12" fill="black" />
<rect shape-rendering="optimizeSpeed"  x="362" y="182" width="12" height="12" fill="black" />
<rect shape-rendering="optimizeSpeed"  x="50" y="194" width="12" height="12" fill="black" />
<rect shape-rendering="optimizeSpeed"  x="62" y="194" width="12" height="12" fill="black" />
<rect shape-rendering="optimizeSpeed"  x="98" y="194" width="12" height="12" fill="black" />
<rect shape-rendering="optimizeSpeed"  x="110" y="194" width="12" height="12" fill="black" />
<rect shape-rendering="optimizeSpeed"  x="170" y="194" width="12" height="12" fill="black" />
<rect shape-rendering="optimizeSpeed"  x="194" y="194" width="12" height="12" fill="black" />
<rect shape-rendering="optimizeSpeed"  x="218" y="194" width="12" height="12" fill="black" />
<rect shape-rendering="optimizeSpeed"  x="230" y="194" width="12" height="12" fill="black" />
<rect shape-rendering="optimizeSpeed"  x="242" y="194" width="12" height="12" fill="black" />
<rect shape-rendering="optimizeSpeed"  x="254" y="194" width="12" height="12" fill="black" />
<rect shape-rendering="optimizeSpeed"  x="278" y="194" width="12" height="12" fill="black" />
<rect shape-rendering="optimizeSpeed"  x="314" y="194" width="12" height="12" fill="black" />
<rect shape-rendering="optimizeSpeed"  x="338" y="194" width="12" height="12" fill="black" />
<rect shape-rendering="optimizeSpeed"  x="350" y="194" width="12" height="12" fill="black" />
<rect shape-rendering="optimizeSpeed"  x="362" y="194" width="12" height="12" fill="black" />
<rect shape-rendering="optimizeSpeed"  x="26" y="206" width="12" height="12" fill="black" />
<rect shape-rendering="optimizeSpeed"  x="50" y="206" width="12" height="12" fill="black" />
<rect shape-rendering="optimizeSpeed"  x="62" y="206" width="12" height="12" fill="black" />
<rect shape-rendering="optimizeSpeed"  x="74" y="206" width="12" height="12" fill="black" />
<rect shape-rendering="optimizeSpeed"  x="146" y="206" width="12" height="12" fill="black" />
<rect shape-rendering="optimizeSpeed"  x="170" y="206" width="12" height="12" fill="black" />
<rect shape-rendering="optimizeSpeed"  x="182" y="206" width="12" height="12" fill="black" />
<rect shape-rendering="optimizeSpeed"  x="266" y="206" width="12" height="12" fill="black" />
<rect shape-rendering="optimizeSpeed"  x="278" y="206" width="12" height="12" fill="black" />
<rect shape-rendering="optimizeSpeed"  x="290" y="206" width="12" height="12" fill="black" />
<rect shape-rendering="optimizeSpeed"  x="314" y="206" width="12" height="12" fill="black" />
<rect shape-rendering="optimizeSpeed"  x="350" y="206" width="12" height="12" fill="black" />
<rect shape-rendering="optimizeSpeed"  x="26" y="218" width="12" height="12" fill="black" />
<rect shape-rendering="optimizeSpeed"  x="38" y="218" width="12" height="12" fill="black" />
<rect shape-rendering="optimizeSpeed"  x="98" y="218" width="12" height="12" fill="black" />
<rect shape-rendering="optimizeSpeed"  x="134" y="218" width="12" height="12" fill="black" />
<rect shape-rendering="optimizeSpeed"  x="146" y="218" width="12" height="12" fill="black" />
<rect shape-rendering="optimizeSpeed"  x="158" y="218" width="12" height="12" fill="black" />
<rect shape-rendering="optimizeSpeed"  x="218" y="218" width="12" height="12" fill="black" />
<rect shape-rendering="optimizeSpeed"  x="242" y="218" width="12" height="12" fill="black" />
<rect shape-rendering="optimizeSpeed"  x="254" y="218" width="12" height="12" fill="black" />
<rect shape-rendering="optimizeSpeed"  x="266" y="218" width="12" height="12" fill="black" />
<rect shape-rendering="optimizeSpeed"  x="278" y="218" width="12" height="12" fill="black" />
<rect shape-rendering="optimizeSpeed"  x="314" y="218" width="12" height="12" fill="black" />
<rect shape-rendering="optimizeSpeed"  x="326" y="218" width="12" height="12" fill="black" />
<rect shape-rendering="optimizeSpeed"  x="350" y="218" width="12" height="12" fill="black" />
<rect shape-rendering="optimizeSpeed"  x="38" y="230" width="12" height="12" fill="black" />
<rect shape-rendering="optimizeSpeed"  x="50" y="230" width="12" height="12" fill="black" />
<rect shape-rendering="optimizeSpeed"  x="74" y="230" width="12" height="12" fill="black" />
<rect shape-rendering="optimizeSpeed"  x="86" y="230" width="12" height="12" fill="black" />
<rect shape-rendering="optimizeSpeed"  x="122" y="230" width="12" height="12" fill="black" />
<rect shape-rendering="optimizeSpeed"  x="170" y="230" width="12" height="12" fill="black" />
<rect shape-rendering="optimizeSpeed"  x="182" y="230" width="12" height="12" fill="black" />
<rect shape-rendering="optimizeSpeed"  x="206" y="230" width="12" height="12" fill="black" />
<rect shape-rendering="optimizeSpeed"  x="266" y="230" width="12" height="12" fill="black" />
<rect shape-rendering="optimizeSpeed"  x="302" y="230" width="12" height="12" fill="black" />
<rect shape-rendering="optimizeSpeed"  x="326" y="230" width="12" height="12" fill="black" />
<rect shape-rendering="optimizeSpeed"  x="338" y="230" width="12" height="12" fill="black" />
<rect shape-rendering="optimizeSpeed"  x="350" y="230" width="12" height="12" fill="black" />
<rect shape-rendering="optimizeSpeed"  x="26" y="242" width="12" height="12" fill="black" />
<rect shape-rendering="optimizeSpeed"  x="50" y="242" width="12" height="12" fill="black" />
<rect shape-rendering="optimizeSpeed"  x="62" y="242" width="12" height="12" fill="black" />
<rect shape-rendering="optimizeSpeed"  x="74" y="242" width="12" height="12" fill="black" />
<rect shape-rendering="optimizeSpeed"  x="98" y="242" width="12" height="12" fill="black" />
<rect shape-rendering="optimizeSpeed"  x="158" y="242" width="12" height="12" fill="black" />
<rect shape-rendering="optimizeSpeed"  x="170" y="242" width="12" height="12" fill="black" />
<rect shape-rendering="optimizeSpeed"  x="206" y="242" width="12" height="12" fill="black" />
<rect shape-rendering="optimizeSpeed"  x="266" y="242" width="12" height="12" fill="black" />
<rect shape-rendering="optimizeSpeed"  x="278" y="242" width="12" height="12" fill="black" />
<rect shape-rendering="optimizeSpeed"  x="302" y="242" width="12" height="12" fill="black" />
<rect shape-rendering="optimizeSpeed"  x="314" y="242" width="12" height="12" fill="black" />
<rect shape-rendering="optimizeSpeed"  x="338" y="242" width="12" height="12" fill="black" />
<rect shape-rendering="optimizeSpeed"  x="50" y="254" width="12" height="12" fill="black" />
<rect shape-rendering="optimizeSpeed"  x="62" y="254" width="12" height="12" fill="black" />
<rect shape-rendering="optimizeSpeed"  x="86" y="254" width="12" height="12" fill="black" />
<rect shape-rendering="optimizeSpeed"  x="122" y="254" width="12" height="12" fill="black" />
<rect shape-rendering="optimizeSpeed"  x="170" y="254" width="12" height="12" fill="black" />
<rect shape-rendering="optimizeSpeed"  x="218" y="254" width="12" height="12" fill="black" />
<rect shape-rendering="optimizeSpeed"  x="230" y="254" width="12" height="12" fill="black" />
<rect shape-rendering="optimizeSpeed"  x="242" y="254" width="12" height="12" fill="black" />
<rect shape-rendering="optimizeSpeed"  x="254" y="254" width="12" height="12" fill="black" />
<rect shape-rendering="optimizeSpeed"  x="266" y="254" width="12" height="12" fill="black" />
<rect shape-rendering="optimizeSpeed"  x="290" y="254" width="12" height="12" fill="black" />
<rect shape-rendering="optimizeSpeed"  x="302" y="254" width="12" height="12" fill="black" />
<rect shape-rendering="optimizeSpeed"  x="314" y="254" width="12" height="12" fill="black" />
<rect shape-rendering="optimizeSpeed"  x="338" y="254" width="12" height="12" fill="black" />
<rect shape-rendering="optimizeSpeed"  x="38" y="266" width="12" height="12" fill="black" />
<rect shape-rendering="optimizeSpeed"  x="62" y="266" width="12" height="12" fill="black" />
<rect shape-rendering="optimizeSpeed"  x="74" y="266" width="12" height="12" fill="black" />
<rect shape-rendering="optimizeSpeed"  x="98" y="266" width="12" height="12" fill="black" />
<rect shape-rendering="optimizeSpeed"  x="122" y="266" width="12" height="12" fill="black" />
<rect shape-rendering="optimizeSpeed"  x="146" y="266" width="12" height="12" fill="black" />
<rect shape-rendering="optimizeSpeed"  x="158" y="266" width="12" height="12" fill="black" />
<rect shape-rendering="optimizeSpeed"  x="170" y="266" width="12" height="12" fill="black" />
<rect shape-rendering="optimizeSpeed"  x="182" y="266" width="12" height="12" fill="black" />
<rect shape-rendering="optimizeSpeed"  x="230" y="266" width="12" height="12" fill="black" />
<rect shape-rendering="optimizeSpeed"  x="242" y="266" width="12" height="12" fill="black" />
<rect shape-rendering="optimizeSpeed"  x="254" y="266" width="12" height="12" fill="black" />
<rect shape-rendering="optimizeSpeed"  x="266" y="266" width="12" height="12" fill="black" />
<rect shape-rendering="optimizeSpeed"  x="278" y="266" width="12" height="12" fill="black" />
<rect shape-rendering="optimizeSpeed"  x="290" y="266" width="12" height="12" fill="black" />
<rect shape-rendering="optimizeSpeed"  x="302" y="266" width="12" height="12" fill="black" />
<rect shape-rendering="optimizeSpeed"  x="314" y="266" width="12" height="12" fill="black" />
<rect shape-rendering="optimizeSpeed"  x="326" y="266" width="12" height="12" fill="black" />
<rect shape-rendering="optimizeSpeed"  x="338" y="266" width="12" height="12" fill="black" />
<rect shape-rendering="optimizeSpeed"  x="122" y="278" width="12" height="12" fill="black" />
<rect shape-rendering="optimizeSpeed"  x="134" y="278" width="12" height="12" fill="black" />
<rect shape-rendering="optimizeSpeed"  x="170" y="278" width="12" height="12" fill="black" />
<rect shape-rendering="optimizeSpeed"  x="182" y="278" width="12" height="12" fill="black" />
<rect shape-rendering="optimizeSpeed"  x="194" y="278" width="12" height="12" fill="black" />
<rect shape-rendering="optimizeSpeed"  x="218" y="278" width="12" height="12" fill="black" />
<rect shape-rendering="optimizeSpeed"  x="242" y="278" width="12" height="12" fill="black" />
<rect shape-rendering="optimizeSpeed"  x="254" y="278" width="12" height="12" fill="black" />
<rect shape-rendering="optimizeSpeed"  x="266" y="278" width="12" height="12" fill="black" />
<rect shape-rendering="optimizeSpeed"  x="314" y="278" width="12" height="12" fill="black" />
<rect shape-rendering="optimizeSpeed"  x="326" y="278" width="12" height="12" fill="black" />
<rect shape-rendering="optimizeSpeed"  x="338" y="278" width="12" height="12" fill="black" />
<rect shape-rendering="optimizeSpeed"  x="350" y="278" width="12" height="12" fill="black" />
<rect shape-rendering="optimizeSpeed"  x="362" y="278" width="12" height="12" fill="black" />
<rect shape-rendering="optimizeSpeed"  x="26" y="290" width="12" height="12" fill="black" />
<rect shape-rendering="optimizeSpeed"  x="38" y="290" width="12" height="12" fill="black" />
<rect shape-rendering="optimizeSpeed"  x="50" y="290" width="12" height="12" fill="black" />
<rect shape-rendering="optimizeSpeed"  x="62" y="290" width="12" height="12" fill="black" />
<rect shape-rendering="optimizeSpeed"  x="74" y="290" width="12" height="12" fill="black" />
<rect shape-rendering="optimizeSpeed"  x="86" y="290" width="12" height="12" fill="black" />
<rect shape-rendering="optimizeSpeed"  x="98" y="290" width="12" height="12" fill="black" />
<rect shape-rendering="optimizeSpeed"  x="134" y="290" width="12" height="12" fill="black" />
<rect shape-rendering="optimizeSpeed"  x="146" y="290" width="12" height="12" fill="black" />
<rect shape-rendering="optimizeSpeed"  x="158" y="290" width="12" height="12" fill="black" />
<rect shape-rendering="optimizeSpeed"  x="170" y="290" width="12" height="12" fill="black" />
<rect shape-rendering="optimizeSpeed"  x="182" y="290" width="12" height="12" fill="black" />
<rect shape-rendering="optimizeSpeed"  x="254" y="290" width="12" height="12" fill="black" />
<rect shape-rendering="optimizeSpeed"  x="266" y="290" width="12" height="12" fill="black" />
<rect shape-rendering="optimizeSpeed"  x="290" y="290" width="12" height="12" fill="black" />
<rect shape-rendering="optimizeSpeed"  x="314" y="290" width="12" height="12" fill="black" />
<rect shape-rendering="optimizeSpeed"  x="326" y="290" width="12" height="12" fill="black" />
<rect shape-rendering="optimizeSpeed"  x="350" y="290" width="12" height="12" fill="black" />
<rect shape-rendering="optimizeSpeed"  x="26" y="302" width="12" height="12" fill="black" />
<rect shape-rendering="optimizeSpeed"  x="98" y="302" width="12" height="12" fill="black" />
<rect shape-rendering="optimizeSpeed"  x="134" y="302" width="12" height="12" fill="black" />
<rect shape-rendering="optimizeSpeed"  x="206" y="302" width="12" height="12" fill="black" />
<rect shape-rendering="optimizeSpeed"  x="266" y="302" width="12" height="12" fill="black" />
<rect shape-rendering="optimizeSpeed"  x="314" y="302" width="12" height="12" fill="black" />
<rect shape-rendering="optimizeSpeed"  x="326" y="302" width="12" height="12" fill="black" />
<rect shape-rendering="optimizeSpeed"  x="350" y="302" width="12" height="12" fill="black" />
<rect shape-rendering="optimizeSpeed"  x="26" y="314" width="12" height="12" fill="black" />
<rect shape-rendering="optimizeSpeed"  x="50" y="314" width="12" height="12" fill="black" />
<rect shape-rendering="optimizeSpeed"  x="62" y="314" width="12" height="12" fill="black" />
<rect shape-rendering="optimizeSpeed"  x="74" y="314" width="12" height="12" fill="black" />
<rect shape-rendering="optimizeSpeed"  x="98" y="314" width="12" height="12" fill="black" />
<rect shape-rendering="optimizeSpeed"  x="146" y="314" width="12" height="12" fill="black" />
<rect shape-rendering="optimizeSpeed"  x="170" y="314" width="12" height="12" fill="black" />
<rect shape-rendering="optimizeSpeed"  x="194" y="314" width="12" height="12" fill="black" />
<rect shape-rendering="optimizeSpeed"  x="230" y="314" width="12" height="12" fill="black" />
<rect shape-rendering="optimizeSpeed"  x="242" y="314" width="12" height="12" fill="black" />
<rect shape-rendering="optimizeSpeed"  x="266" y="314" width="12" height="12" fill="black" />
<rect shape-rendering="optimizeSpeed"  x="278" y="314" width="12" height="12" fill="black" />
<rect shape-rendering="optimizeSpeed"  x="290" y="314" width="12" height="12" fill="black" />
<rect shape-rendering="optimizeSpeed"  x="302" y="314" width="12" height="12" fill="black" />
<rect shape-rendering="optimizeSpeed"  x="314" y="314" width="12" height="12" fill="black" />
<rect shape-rendering="optimizeSpeed"  x="338" y="314" width="12" height="12" fill="black" />
<rect shape-rendering="optimizeSpeed"  x="26" y="326" width="12" height="12" fill="black" />
<rect shape-rendering="optimizeSpeed"  x="50" y="326" width="12" height="12" fill="black" />
<rect shape-rendering="optimizeSpeed"  x="62" y="326" width="12" height="12" fill="black" />
<rect shape-rendering="optimizeSpeed"  x="74" y="326" width="12" height="12" fill="black" />
<rect shape-rendering="optimizeSpeed"  x="98" y="326" width="12" height="12" fill="black" />
<rect shape-rendering="optimizeSpeed"  x="122" y="326" width="12" height="12" fill="black" />
<rect shape-rendering="optimizeSpeed"  x="134" y="326" width="12" height="12" fill="black" />
<rect shape-rendering="optimizeSpeed"  x="158" y="326" width="12" height="12" fill="black" />
<rect shape-rendering="optimizeSpeed"  x="170" y="326" width="12" height="12" fill="black" />
<rect shape-rendering="optimizeSpeed"  x="194" y="326" width="12" height="12" fill="black" />
<rect shape-rendering="optimizeSpeed"  x="206" y="326" width="12" height="12" fill="black" />
<rect shape-rendering="optimizeSpeed"  x="218" y="326" width="12" height="12" fill="black" />
<rect shape-rendering="optimizeSpeed"  x="254" y="326" width="12" height="12" fill="black" />
<rect shape-rendering="optimizeSpeed"  x="278" y="326" width="12" height="12" fill="black" />
<rect shape-rendering="optimizeSpeed"  x="302" y="326" width="12" height="12" fill="black" />
<rect shape-rendering="optimizeSpeed"  x="314" y="326" width="12" height="12" fill="black" />
<rect shape-rendering="optimizeSpeed"  x="326" y="326" width="12" height="12" fill="black" />
<rect shape-rendering="optimizeSpeed"  x="362" y="326" width="12" height="12" fill="black" />
<rect shape-rendering="optimizeSpeed"  x="26" y="338" width="12" height="12" fill="black" />
<rect shape-rendering="optimizeSpeed"  x="50" y="338" width="12" height="12" fill="black" />
<rect shape-rendering="optimizeSpeed"  x="62" y="338" width="12" height="12" fill="black" />
<rect shape-rendering="optimizeSpeed"  x="74" y="338" width="12" height="12" fill="black" />
<rect shape-rendering="optimizeSpeed"  x="98" y="338" width="12" height="12" fill="black" />
<rect shape-rendering="optimizeSpeed"  x="122" y="338" width="12" height="12" fill="black" />
<rect shape-rendering="optimizeSpeed"  x="146" y="338" width="12" height="12" fill="black" />
<rect shape-rendering="optimizeSpeed"  x="158" y="338" width="12" height="12" fill="black" />
<rect shape-rendering="optimizeSpeed"  x="182" y="338" width="12" height="12" fill="black" />
<rect shape-rendering="optimizeSpeed"  x="230" y="338" width="12" height="12" fill="black" />
<rect shape-rendering="optimizeSpeed"  x="242" y="338" width="12" height="12" fill="black" />
<rect shape-rendering="optimizeSpeed"  x="266" y="338" width="12" height="12" fill="black" />
<rect shape-rendering="optimizeSpeed"  x="278" y="338" width="12" height="12" fill="black" />
<rect shape-rendering="optimizeSpeed"  x="302" y="338" width="12" height="12" fill="black" />
<rect shape-rendering="optimizeSpeed"  x="338" y="338" width="12" height="12" fill="black" />
<rect shape-rendering="optimizeSpeed"  x="362" y="338" width="12" height="12" fill="black" />
<rect shape-rendering="optimizeSpeed"  x="26" y="350" width="12" height="12" fill="black" />
<rect shape-rendering="optimizeSpeed"  x="98" y="350" width="12" height="12" fill="black" />
<rect shape-rendering="optimizeSpeed"  x="122" y="350" width="12" height="12" fill="black" />
<rect shape-rendering="optimizeSpeed"  x="134" y="350" width="12" height="12" fill="black" />
<rect shape-rendering="optimizeSpeed"  x="146" y="350" width="12" height="12" fill="black" />
<rect shape-rendering="optimizeSpeed"  x="158" y="350" width="12" height="12" fill="black" />
<rect shape-rendering="optimizeSpeed"  x="194" y="350" width="12" height="12" fill="black" />
<rect shape-rendering="optimizeSpeed"  x="206" y="350" width="12" height="12" fill="black" />
<rect shape-rendering="optimizeSpeed"  x="266" y="350" width="12" height="12" fill="black" />
<rect shape-rendering="optimizeSpeed"  x="278" y="350" width="12" height="12" fill="black" />
<rect shape-rendering="optimizeSpeed"  x="290" y="350" width="12" height="12" fill="black" />
<rect shape-rendering="optimizeSpeed"  x="302" y="350" width="12" height="12" fill="black" />
<rect shape-rendering="optimizeSpeed"  x="314" y="350" width="12" height="12" fill="black" />
<rect shape-rendering="optimizeSpeed"  x="326" y="350" width="12" height="12" fill="black" />
<rect shape-rendering="optimizeSpeed"  x="350" y="350" width="12" height="12" fill="black" />
<rect shape-rendering="optimizeSpeed"  x="26" y="362" width="12" height="12" fill="black" />
<rect shape-rendering="optimizeSpeed"  x="38" y="362" width="12" height="12" fill="black" />
<rect shape-rendering="optimizeSpeed"  x="50" y="362" width="12" height="12" fill="black" />
<rect shape-rendering="optimizeSpeed"  x="62" y="362" width="12" height="12" fill="black" />
<rect shape-rendering="optimizeSpeed"  x="74" y="362" width="12" height="12" fill="black" />
<rect shape-rendering="optimizeSpeed"  x="86" y="362" width="12" height="12" fill="black" />
<rect shape-rendering="optimizeSpeed"  x="98" y="362" width="12" height="12" fill="black" />
<rect shape-rendering="optimizeSpeed"  x="122" y="362" width="12" height="12" fill="black" />
<rect shape-rendering="optimizeSpeed"  x="146" y="362" width="12" height="12" fill="black" />
<rect shape-rendering="optimizeSpeed"  x="170" y="362" width="12" height="12" fill="black" />
<rect shape-rendering="optimizeSpeed"  x="194" y="362" width="12" height="12" fill="black" />
<rect shape-rendering="optimizeSpeed"  x="206" y="362" width="12" height="12" fill="black" />
<rect shape-rendering="optimizeSpeed"  x="242" y="362" width="12" height="12" fill="black" />
<rect shape-rendering="optimizeSpeed"  x="266" y="362" width="12" height="12" fill="black" />
<rect shape-rendering="optimizeSpeed"  x="290" y="362" width="12" height="12" fill="black" />
<rect shape-rendering="optimizeSpeed"  x="314" y="362" width="12" height="12" fill="black" />
<rect shape-rendering="optimizeSpeed"  x="350" y="362" width="12" height="12" fill="black" /></svg>