<?xml version="1.0" encoding="UTF-8" standalone="no"?>
<svg
   xmlns:dc="http://purl.org/dc/elements/1.1/"
   xmlns:cc="http://creativecommons.org/ns#"
   xmlns:rdf="http://www.w3.org/1999/02/22-rdf-syntax-ns#"
   xmlns:svg="http://www.w3.org/2000/svg"
   xmlns="http://www.w3.org/2000/svg"
   xmlns:sodipodi="http://sodipodi.sourceforge.net/DTD/sodipodi-0.dtd"
   xmlns:inkscape="http://www.inkscape.org/namespaces/inkscape"
   width="700"
   height="700"
   viewBox="0 0 700 700"
   version="1.1"
   id="svg10"
   sodipodi:docname="element.svg"
   style="fill:none"
   inkscape:version="0.92.5 (2060ec1f9f, 2020-04-08)">
  <metadata
     id="metadata16">
    <rdf:RDF>
      <cc:Work
         rdf:about="">
        <dc:format>image/svg+xml</dc:format>
        <dc:type
           rdf:resource="http://purl.org/dc/dcmitype/StillImage" />
        <dc:title></dc:title>
      </cc:Work>
    </rdf:RDF>
  </metadata>
  <defs
     id="defs14" />
  <sodipodi:namedview
     pagecolor="#ffffff"
     bordercolor="#666666"
     borderopacity="1"
     objecttolerance="10"
     gridtolerance="10"
     guidetolerance="10"
     inkscape:pageopacity="0"
     inkscape:pageshadow="2"
     inkscape:window-width="1294"
     inkscape:window-height="704"
     id="namedview12"
     showgrid="false"
     fit-margin-top="0"
     fit-margin-left="0"
     fit-margin-right="0"
     fit-margin-bottom="0"
     inkscape:zoom="0.23046875"
     inkscape:cx="-1101.3898"
     inkscape:cy="332.64407"
     inkscape:window-x="72"
     inkscape:window-y="27"
     inkscape:window-maximized="1"
     inkscape:current-layer="svg10" />
  <path
     d="m 252,42 c 0,-23.196 18.804,-42 42,-42 154.64,0 280,125.36 280,280 0,23.196 -18.804,42 -42,42 -23.196,0 -42,-18.804 -42,-42 C 490,171.752 402.248,84 294,84 270.804,84 252,65.196 252,42 Z"
     id="path2"
     style="clip-rule:evenodd;fill:#06805e;fill-opacity:1;fill-rule:evenodd"
     inkscape:connector-curvature="0" />
  <path
     d="m 448,658 c 0,23.196 -18.804,42 -42,42 -154.64,0 -280,-125.36 -280,-280 0,-23.196 18.804,-42 42,-42 23.196,0 42,18.804 42,42 0,108.248 87.752,196 196,196 23.196,0 42,18.804 42,42 z"
     id="path4"
     style="clip-rule:evenodd;fill:#06805e;fill-opacity:1;fill-rule:evenodd"
     inkscape:connector-curvature="0" />
  <path
     d="M 42,448 C 18.804,448 0,429.196 0,406 0,251.36 125.36,126 280,126 c 23.196,0 42,18.804 42,42 0,23.196 -18.804,42 -42,42 -108.248,0 -196,87.752 -196,196 0,23.196 -18.804,42 -42,42 z"
     id="path6"
     style="clip-rule:evenodd;fill:#06805e;fill-opacity:1;fill-rule:evenodd"
     inkscape:connector-curvature="0" />
  <path
     d="m 658,252 c 23.196,0 42,18.804 42,42 0,154.64 -125.36,280 -280,280 -23.196,0 -42,-18.804 -42,-42 0,-23.196 18.804,-42 42,-42 108.248,0 196,-87.752 196,-196 0,-23.196 18.804,-42 42,-42 z"
     id="path8"
     style="clip-rule:evenodd;fill:#06805e;fill-opacity:1;fill-rule:evenodd"
     inkscape:connector-curvature="0" />
</svg>
