<?xml version="1.0" encoding="UTF-8" standalone="no"?>
<!-- Created with Inkscape (http://www.inkscape.org/) -->

<svg
   xmlns:dc="http://purl.org/dc/elements/1.1/"
   xmlns:cc="http://creativecommons.org/ns#"
   xmlns:rdf="http://www.w3.org/1999/02/22-rdf-syntax-ns#"
   xmlns:svg="http://www.w3.org/2000/svg"
   xmlns="http://www.w3.org/2000/svg"
   xmlns:sodipodi="http://sodipodi.sourceforge.net/DTD/sodipodi-0.dtd"
   xmlns:inkscape="http://www.inkscape.org/namespaces/inkscape"
   width="39.375252mm"
   height="22.275423mm"
   viewBox="0 0 39.375252 22.275423"
   version="1.1"
   id="svg8"
   inkscape:version="0.92.3 (2405546, 2018-03-11)"
   sodipodi:docname="miren.svg">
  <defs
     id="defs2" />
  <sodipodi:namedview
     id="base"
     pagecolor="#ffffff"
     bordercolor="#666666"
     borderopacity="1.0"
     inkscape:pageopacity="0.0"
     inkscape:pageshadow="2"
     inkscape:zoom="1.979899"
     inkscape:cx="81.479816"
     inkscape:cy="-10.410634"
     inkscape:document-units="mm"
     inkscape:current-layer="layer1"
     showgrid="false"
     inkscape:window-width="1366"
     inkscape:window-height="705"
     inkscape:window-x="-8"
     inkscape:window-y="-8"
     inkscape:window-maximized="1"
     fit-margin-top="0"
     fit-margin-left="0"
     fit-margin-right="0"
     fit-margin-bottom="0" />
  <metadata
     id="metadata5">
    <rdf:RDF>
      <cc:Work
         rdf:about="">
        <dc:format>image/svg+xml</dc:format>
        <dc:type
           rdf:resource="http://purl.org/dc/dcmitype/StillImage" />
        <dc:title></dc:title>
      </cc:Work>
    </rdf:RDF>
  </metadata>
  <g
     inkscape:label="Capa 1"
     inkscape:groupmode="layer"
     id="layer1"
     transform="translate(-55.522333,-113.35039)">
    <path
       style="fill:none;stroke:#000000;stroke-width:1.5;stroke-linecap:round;stroke-linejoin:round;stroke-miterlimit:4;stroke-dasharray:none;stroke-opacity:1"
       d="m 56.39387,133.96559 c -0.708432,3.47495 1.916221,-4.01379 2.138156,-5.34539 0.373597,-2.2416 1.012685,-4.41611 1.336347,-6.68174 3.041034,-21.28723 0.310679,7.25969 2.405425,9.35443 1.472679,1.47268 5.419485,-13.89802 5.879931,-13.89802 1.621298,0 -4.01034,10.42222 -0.53454,13.89802 1.306705,1.30671 4.413795,-7.8883 4.810852,-8.28535 -1.269355,3.19607 2.780525,9.5795 2.993689,6.1472 l -0.159252,-2.63889 c 0.257463,-6.77724 4.617386,5.31158 2.575422,5.31158 -1.269106,0 -0.540314,-8.4161 1.336347,-9.35443 1.953471,-0.97674 2.50807,3.20723 4.009043,3.20723 1.137605,0 2.058755,-4.27631 0.801809,-4.27631 -4.165608,0 -2.853767,7.03521 -1.336347,8.55262 1.641785,1.64179 3.503584,-5.93808 3.741772,-6.41447 0.546518,-1.09303 -0.09376,6.1472 1.33635,6.1472 3.743512,0 3.005489,-11.76503 4.81085,-4.54358 0.47749,1.90996 1.603616,4.54358 1.603616,4.54358"
       id="path823"
       inkscape:connector-curvature="0"
       sodipodi:nodetypes="ccscsccccscssccssc" />
    <path
       style="fill:none;stroke:#000000;stroke-width:1.5;stroke-linecap:round;stroke-linejoin:round;stroke-miterlimit:4;stroke-dasharray:none;stroke-opacity:1"
       d="m 73.231849,119.8003 c -1.682824,-0.83533 -1.210558,-0.30264 0,0 z"
       id="path825"
       inkscape:connector-curvature="0" />
    <path
       style="fill:none;stroke:#000000;stroke-width:0.26458332px;stroke-linecap:butt;stroke-linejoin:miter;stroke-opacity:1"
       d="m 137.6438,112.98493 c 1.38913,1.67591 0.49855,0.87245 0,0"
       id="path861"
       inkscape:connector-curvature="0" />
  </g>
</svg>
